<svg width="262" height="221" viewBox="0 0 262 221" fill="none" xmlns="http://www.w3.org/2000/svg">
<path d="M284.871 10.5339C319.915 36.7084 330.084 82.3463 307.584 112.469C329.408 171.638 261.747 227.968 222.621 108.801C198.472 8.445 11.8773 156.125 31.0872 -16.9961C58.0495 -49.4492 249.828 -15.6405 284.871 10.5339Z" fill="#89BD37"/>
<path d="M102.573 30.14C101.6 30.14 100.72 29.9733 99.933 29.64C99.1597 29.3067 98.5464 28.8267 98.093 28.2C97.6397 27.5733 97.4064 26.8333 97.393 25.98H100.393C100.433 26.5533 100.633 27.0067 100.993 27.34C101.366 27.6733 101.873 27.84 102.513 27.84C103.166 27.84 103.68 27.6867 104.053 27.38C104.426 27.06 104.613 26.6467 104.613 26.14C104.613 25.7267 104.486 25.3867 104.233 25.12C103.98 24.8533 103.66 24.6467 103.273 24.5C102.9 24.34 102.38 24.1667 101.713 23.98C100.806 23.7133 100.066 23.4533 99.493 23.2C98.933 22.9333 98.4464 22.54 98.033 22.02C97.633 21.4867 97.433 20.78 97.433 19.9C97.433 19.0733 97.6397 18.3533 98.053 17.74C98.4664 17.1267 99.0464 16.66 99.793 16.34C100.54 16.0067 101.393 15.84 102.353 15.84C103.793 15.84 104.96 16.1933 105.853 16.9C106.76 17.5933 107.26 18.5667 107.353 19.82H104.273C104.246 19.34 104.04 18.9467 103.653 18.64C103.28 18.32 102.78 18.16 102.153 18.16C101.606 18.16 101.166 18.3 100.833 18.58C100.513 18.86 100.353 19.2667 100.353 19.8C100.353 20.1733 100.473 20.4867 100.713 20.74C100.966 20.98 101.273 21.18 101.633 21.34C102.006 21.4867 102.526 21.66 103.193 21.86C104.1 22.1267 104.84 22.3933 105.413 22.66C105.986 22.9267 106.48 23.3267 106.893 23.86C107.306 24.3933 107.513 25.0933 107.513 25.96C107.513 26.7067 107.32 27.4 106.933 28.04C106.546 28.68 105.98 29.1933 105.233 29.58C104.486 29.9533 103.6 30.14 102.573 30.14ZM120.241 24.22C120.241 24.62 120.214 24.98 120.161 25.3H112.061C112.127 26.1 112.407 26.7267 112.901 27.18C113.394 27.6333 114.001 27.86 114.721 27.86C115.761 27.86 116.501 27.4133 116.941 26.52H119.961C119.641 27.5867 119.027 28.4667 118.121 29.16C117.214 29.84 116.101 30.18 114.781 30.18C113.714 30.18 112.754 29.9467 111.901 29.48C111.061 29 110.401 28.3267 109.921 27.46C109.454 26.5933 109.221 25.5933 109.221 24.46C109.221 23.3133 109.454 22.3067 109.921 21.44C110.387 20.5733 111.041 19.9067 111.881 19.44C112.721 18.9733 113.687 18.74 114.781 18.74C115.834 18.74 116.774 18.9667 117.601 19.42C118.441 19.8733 119.087 20.52 119.541 21.36C120.007 22.1867 120.241 23.14 120.241 24.22ZM117.341 23.42C117.327 22.7 117.067 22.1267 116.561 21.7C116.054 21.26 115.434 21.04 114.701 21.04C114.007 21.04 113.421 21.2533 112.941 21.68C112.474 22.0933 112.187 22.6733 112.081 23.42H117.341ZM129.85 20.52C130.21 20.0133 130.703 19.5933 131.33 19.26C131.97 18.9133 132.697 18.74 133.51 18.74C134.457 18.74 135.31 18.9733 136.07 19.44C136.843 19.9067 137.45 20.5733 137.89 21.44C138.343 22.2933 138.57 23.2867 138.57 24.42C138.57 25.5533 138.343 26.56 137.89 27.44C137.45 28.3067 136.843 28.98 136.07 29.46C135.31 29.94 134.457 30.18 133.51 30.18C132.697 30.18 131.977 30.0133 131.35 29.68C130.737 29.3467 130.237 28.9267 129.85 28.42V35.28H127.05V18.92H129.85V20.52ZM135.71 24.42C135.71 23.7533 135.57 23.18 135.29 22.7C135.023 22.2067 134.663 21.8333 134.21 21.58C133.77 21.3267 133.29 21.2 132.77 21.2C132.263 21.2 131.783 21.3333 131.33 21.6C130.89 21.8533 130.53 22.2267 130.25 22.72C129.983 23.2133 129.85 23.7933 129.85 24.46C129.85 25.1267 129.983 25.7067 130.25 26.2C130.53 26.6933 130.89 27.0733 131.33 27.34C131.783 27.5933 132.263 27.72 132.77 27.72C133.29 27.72 133.77 27.5867 134.21 27.32C134.663 27.0533 135.023 26.6733 135.29 26.18C135.57 25.6867 135.71 25.1 135.71 24.42ZM139.885 24.42C139.885 23.3 140.105 22.3067 140.545 21.44C140.998 20.5733 141.605 19.9067 142.365 19.44C143.138 18.9733 143.998 18.74 144.945 18.74C145.771 18.74 146.491 18.9067 147.105 19.24C147.731 19.5733 148.231 19.9933 148.605 20.5V18.92H151.425V30H148.605V28.38C148.245 28.9 147.745 29.3333 147.105 29.68C146.478 30.0133 145.751 30.18 144.925 30.18C143.991 30.18 143.138 29.94 142.365 29.46C141.605 28.98 140.998 28.3067 140.545 27.44C140.105 26.56 139.885 25.5533 139.885 24.42ZM148.605 24.46C148.605 23.78 148.471 23.2 148.205 22.72C147.938 22.2267 147.578 21.8533 147.125 21.6C146.671 21.3333 146.185 21.2 145.665 21.2C145.145 21.2 144.665 21.3267 144.225 21.58C143.785 21.8333 143.425 22.2067 143.145 22.7C142.878 23.18 142.745 23.7533 142.745 24.42C142.745 25.0867 142.878 25.6733 143.145 26.18C143.425 26.6733 143.785 27.0533 144.225 27.32C144.678 27.5867 145.158 27.72 145.665 27.72C146.185 27.72 146.671 27.5933 147.125 27.34C147.578 27.0733 147.938 26.7 148.205 26.22C148.471 25.7267 148.605 25.14 148.605 24.46ZM156.959 20.64C157.319 20.0533 157.786 19.5933 158.359 19.26C158.946 18.9267 159.613 18.76 160.359 18.76V21.7H159.619C158.739 21.7 158.073 21.9067 157.619 22.32C157.179 22.7333 156.959 23.4533 156.959 24.48V30H154.159V18.92H156.959V20.64ZM165.505 21.22V26.58C165.505 26.9533 165.592 27.2267 165.765 27.4C165.952 27.56 166.259 27.64 166.685 27.64H167.985V30H166.225C163.865 30 162.685 28.8533 162.685 26.56V21.22H161.365V18.92H162.685V16.18H165.505V18.92H167.985V21.22H165.505ZM180.299 24.22C180.299 24.62 180.272 24.98 180.219 25.3H172.119C172.186 26.1 172.466 26.7267 172.959 27.18C173.452 27.6333 174.059 27.86 174.779 27.86C175.819 27.86 176.559 27.4133 176.999 26.52H180.019C179.699 27.5867 179.086 28.4667 178.179 29.16C177.272 29.84 176.159 30.18 174.839 30.18C173.772 30.18 172.812 29.9467 171.959 29.48C171.119 29 170.459 28.3267 169.979 27.46C169.512 26.5933 169.279 25.5933 169.279 24.46C169.279 23.3133 169.512 22.3067 169.979 21.44C170.446 20.5733 171.099 19.9067 171.939 19.44C172.779 18.9733 173.746 18.74 174.839 18.74C175.892 18.74 176.832 18.9667 177.659 19.42C178.499 19.8733 179.146 20.52 179.599 21.36C180.066 22.1867 180.299 23.14 180.299 24.22ZM177.399 23.42C177.386 22.7 177.126 22.1267 176.619 21.7C176.112 21.26 175.492 21.04 174.759 21.04C174.066 21.04 173.479 21.2533 172.999 21.68C172.532 22.0933 172.246 22.6733 172.139 23.42H177.399ZM186.389 24.42C186.389 23.3 186.609 22.3067 187.049 21.44C187.502 20.5733 188.115 19.9067 188.889 19.44C189.662 18.9733 190.522 18.74 191.469 18.74C192.189 18.74 192.875 18.9 193.529 19.22C194.182 19.5267 194.702 19.94 195.089 20.46V15.2H197.929V30H195.089V28.36C194.742 28.9067 194.255 29.3467 193.629 29.68C193.002 30.0133 192.275 30.18 191.449 30.18C190.515 30.18 189.662 29.94 188.889 29.46C188.115 28.98 187.502 28.3067 187.049 27.44C186.609 26.56 186.389 25.5533 186.389 24.42ZM195.109 24.46C195.109 23.78 194.975 23.2 194.709 22.72C194.442 22.2267 194.082 21.8533 193.629 21.6C193.175 21.3333 192.689 21.2 192.169 21.2C191.649 21.2 191.169 21.3267 190.729 21.58C190.289 21.8333 189.929 22.2067 189.649 22.7C189.382 23.18 189.249 23.7533 189.249 24.42C189.249 25.0867 189.382 25.6733 189.649 26.18C189.929 26.6733 190.289 27.0533 190.729 27.32C191.182 27.5867 191.662 27.72 192.169 27.72C192.689 27.72 193.175 27.5933 193.629 27.34C194.082 27.0733 194.442 26.7 194.709 26.22C194.975 25.7267 195.109 25.14 195.109 24.46ZM210.963 24.22C210.963 24.62 210.937 24.98 210.883 25.3H202.783C202.85 26.1 203.13 26.7267 203.623 27.18C204.117 27.6333 204.723 27.86 205.443 27.86C206.483 27.86 207.223 27.4133 207.663 26.52H210.683C210.363 27.5867 209.75 28.4667 208.843 29.16C207.937 29.84 206.823 30.18 205.503 30.18C204.437 30.18 203.477 29.9467 202.623 29.48C201.783 29 201.123 28.3267 200.643 27.46C200.177 26.5933 199.943 25.5933 199.943 24.46C199.943 23.3133 200.177 22.3067 200.643 21.44C201.11 20.5733 201.763 19.9067 202.603 19.44C203.443 18.9733 204.41 18.74 205.503 18.74C206.557 18.74 207.497 18.9667 208.323 19.42C209.163 19.8733 209.81 20.52 210.263 21.36C210.73 22.1867 210.963 23.14 210.963 24.22ZM208.063 23.42C208.05 22.7 207.79 22.1267 207.283 21.7C206.777 21.26 206.157 21.04 205.423 21.04C204.73 21.04 204.143 21.2533 203.663 21.68C203.197 22.0933 202.91 22.6733 202.803 23.42H208.063ZM119.951 46.04L114.831 60H111.431L106.311 46.04H109.311L113.151 57.14L116.971 46.04H119.951ZM131.93 54.22C131.93 54.62 131.903 54.98 131.85 55.3H123.75C123.817 56.1 124.097 56.7267 124.59 57.18C125.083 57.6333 125.69 57.86 126.41 57.86C127.45 57.86 128.19 57.4133 128.63 56.52H131.65C131.33 57.5867 130.717 58.4667 129.81 59.16C128.903 59.84 127.79 60.18 126.47 60.18C125.403 60.18 124.443 59.9467 123.59 59.48C122.75 59 122.09 58.3267 121.61 57.46C121.143 56.5933 120.91 55.5933 120.91 54.46C120.91 53.3133 121.143 52.3067 121.61 51.44C122.077 50.5733 122.73 49.9067 123.57 49.44C124.41 48.9733 125.377 48.74 126.47 48.74C127.523 48.74 128.463 48.9667 129.29 49.42C130.13 49.8733 130.777 50.52 131.23 51.36C131.697 52.1867 131.93 53.14 131.93 54.22ZM129.03 53.42C129.017 52.7 128.757 52.1267 128.25 51.7C127.743 51.26 127.123 51.04 126.39 51.04C125.697 51.04 125.11 51.2533 124.63 51.68C124.163 52.0933 123.877 52.6733 123.77 53.42H129.03ZM136.774 50.64C137.134 50.0533 137.6 49.5933 138.174 49.26C138.76 48.9267 139.427 48.76 140.174 48.76V51.7H139.434C138.554 51.7 137.887 51.9067 137.434 52.32C136.994 52.7333 136.774 53.4533 136.774 54.48V60H133.974V48.92H136.774V50.64ZM141.34 54.42C141.34 53.3 141.56 52.3067 142 51.44C142.453 50.5733 143.066 49.9067 143.84 49.44C144.613 48.9733 145.473 48.74 146.42 48.74C147.14 48.74 147.826 48.9 148.48 49.22C149.133 49.5267 149.653 49.94 150.04 50.46V45.2H152.88V60H150.04V58.36C149.693 58.9067 149.206 59.3467 148.58 59.68C147.953 60.0133 147.226 60.18 146.4 60.18C145.466 60.18 144.613 59.94 143.84 59.46C143.066 58.98 142.453 58.3067 142 57.44C141.56 56.56 141.34 55.5533 141.34 54.42ZM150.06 54.46C150.06 53.78 149.926 53.2 149.66 52.72C149.393 52.2267 149.033 51.8533 148.58 51.6C148.126 51.3333 147.64 51.2 147.12 51.2C146.6 51.2 146.12 51.3267 145.68 51.58C145.24 51.8333 144.88 52.2067 144.6 52.7C144.333 53.18 144.2 53.7533 144.2 54.42C144.2 55.0867 144.333 55.6733 144.6 56.18C144.88 56.6733 145.24 57.0533 145.68 57.32C146.133 57.5867 146.613 57.72 147.12 57.72C147.64 57.72 148.126 57.5933 148.58 57.34C149.033 57.0733 149.393 56.7 149.66 56.22C149.926 55.7267 150.06 55.14 150.06 54.46ZM165.914 54.22C165.914 54.62 165.888 54.98 165.834 55.3H157.734C157.801 56.1 158.081 56.7267 158.574 57.18C159.068 57.6333 159.674 57.86 160.394 57.86C161.434 57.86 162.174 57.4133 162.614 56.52H165.634C165.314 57.5867 164.701 58.4667 163.794 59.16C162.888 59.84 161.774 60.18 160.454 60.18C159.388 60.18 158.428 59.9467 157.574 59.48C156.734 59 156.074 58.3267 155.594 57.46C155.128 56.5933 154.894 55.5933 154.894 54.46C154.894 53.3133 155.128 52.3067 155.594 51.44C156.061 50.5733 156.714 49.9067 157.554 49.44C158.394 48.9733 159.361 48.74 160.454 48.74C161.508 48.74 162.448 48.9667 163.274 49.42C164.114 49.8733 164.761 50.52 165.214 51.36C165.681 52.1867 165.914 53.14 165.914 54.22ZM163.014 53.42C163.001 52.7 162.741 52.1267 162.234 51.7C161.728 51.26 161.108 51.04 160.374 51.04C159.681 51.04 159.094 51.2533 158.614 51.68C158.148 52.0933 157.861 52.6733 157.754 53.42H163.014ZM178.138 50.36C178.138 51.1067 177.958 51.8067 177.598 52.46C177.251 53.1133 176.698 53.64 175.938 54.04C175.191 54.44 174.245 54.64 173.098 54.64H170.758V60H167.958V46.04H173.098C174.178 46.04 175.098 46.2267 175.858 46.6C176.618 46.9733 177.185 47.4867 177.558 48.14C177.945 48.7933 178.138 49.5333 178.138 50.36ZM172.978 52.38C173.751 52.38 174.325 52.2067 174.698 51.86C175.071 51.5 175.258 51 175.258 50.36C175.258 49 174.498 48.32 172.978 48.32H170.758V52.38H172.978ZM179.406 54.42C179.406 53.3 179.626 52.3067 180.066 51.44C180.519 50.5733 181.126 49.9067 181.886 49.44C182.659 48.9733 183.519 48.74 184.466 48.74C185.293 48.74 186.013 48.9067 186.626 49.24C187.253 49.5733 187.753 49.9933 188.126 50.5V48.92H190.946V60H188.126V58.38C187.766 58.9 187.266 59.3333 186.626 59.68C185.999 60.0133 185.273 60.18 184.446 60.18C183.513 60.18 182.659 59.94 181.886 59.46C181.126 58.98 180.519 58.3067 180.066 57.44C179.626 56.56 179.406 55.5533 179.406 54.42ZM188.126 54.46C188.126 53.78 187.993 53.2 187.726 52.72C187.459 52.2267 187.099 51.8533 186.646 51.6C186.193 51.3333 185.706 51.2 185.186 51.2C184.666 51.2 184.186 51.3267 183.746 51.58C183.306 51.8333 182.946 52.2067 182.666 52.7C182.399 53.18 182.266 53.7533 182.266 54.42C182.266 55.0867 182.399 55.6733 182.666 56.18C182.946 56.6733 183.306 57.0533 183.746 57.32C184.199 57.5867 184.679 57.72 185.186 57.72C185.706 57.72 186.193 57.5933 186.646 57.34C187.099 57.0733 187.459 56.7 187.726 56.22C187.993 55.7267 188.126 55.14 188.126 54.46ZM196.241 57.7H201.181V60H193.061V57.74L197.901 51.22H193.081V48.92H201.121V51.18L196.241 57.7Z" fill="white"/>
</svg>
