<svg width="202" height="45" viewBox="0 0 202 45" fill="none" xmlns="http://www.w3.org/2000/svg">
<path d="M186.381 37.4409C187.259 37.4409 187.78 37.4409 188.3 37.4409C191.618 37.4409 194.936 37.3928 198.254 37.4409C200.412 37.4729 201.558 38.7546 201.572 40.9655C201.587 43.3046 200.471 44.5061 198.225 44.6023C197.987 44.6023 197.734 44.6023 197.496 44.6023C190.279 44.6183 183.063 44.6503 175.847 44.6664C173.555 44.6664 172.782 44.0896 172.082 41.5903C171.383 39.075 170.773 36.5277 170.222 33.9643C169.954 32.7307 169.523 32.202 168.362 32.234C165.58 32.3301 162.798 32.3301 160.03 32.2661C159.004 32.25 158.572 32.6666 158.319 33.7881C157.709 36.5597 157.025 39.3153 156.281 42.0389C155.73 44.0255 154.718 44.8105 153.186 44.7785C151.222 44.7304 149.823 42.9201 150.344 40.7412C151.356 36.5277 152.516 32.3622 153.677 28.1967C155.819 20.5547 157.977 12.9286 160.164 5.30261C161.042 2.22657 162.322 1.08908 164.494 1.1852C165.922 1.24929 167.053 1.93819 167.693 3.42815C168.214 4.69382 168.69 5.99152 169.062 7.32127C171.829 17.0941 174.552 26.867 177.305 36.6398C177.558 37.521 177.87 38.3861 178.272 39.5877C183.494 29.0138 188.568 18.7603 193.776 8.20242C191.276 8.20242 189.089 8.20242 186.917 8.20242C185.935 8.20242 184.967 8.26651 184 8.17038C182.334 8.01017 181.426 6.85666 181.382 4.9822C181.337 2.97956 182.289 1.42552 183.896 1.24929C185.741 1.05704 187.601 1.05704 189.446 1.04102C192.466 1.00898 195.487 0.992948 198.522 1.00897C201.379 1.02499 202.763 3.4602 201.572 6.47216C200.814 8.4107 199.817 10.2211 198.894 12.0795C195.011 19.8658 191.112 27.652 187.214 35.4382C186.961 35.9509 186.753 36.5116 186.366 37.4248L186.381 37.4409ZM167.767 25.3129C166.651 21.0834 165.595 17.0941 164.539 13.1209C164.405 13.1369 164.256 13.169 164.122 13.185C163.095 17.1582 162.054 21.1474 160.982 25.3129H167.767Z" fill="#085D36"/>
<path d="M71.1429 22.8617C71.1429 16.8058 71.128 10.7338 71.1429 4.67782C71.1429 2.40283 71.9761 1.23329 73.8806 1.07308C79.3858 0.64051 84.7125 1.24932 89.3399 5.22254C95.842 10.8139 98.0888 18.4239 96.6753 27.3476C95.2618 36.2713 90.4112 41.8947 82.7783 44.0255C80.1596 44.7625 77.3772 44.8586 74.6692 44.9868C72.11 45.099 71.1577 43.8493 71.1429 40.8854C71.1131 34.8775 71.1429 28.8696 71.1429 22.8617ZM77.5855 8.25052V37.4889C82.3319 37.4569 86.26 35.7907 88.7001 31.0164C91.542 25.4732 91.5866 19.7216 88.5067 14.3065C86.0219 9.93273 82.1682 8.29858 77.5706 8.23449L77.5855 8.25052Z" fill="#085D36"/>
<path d="M60.1919 29.4305C62.0667 32.2823 63.8819 35.0539 65.6971 37.8256C66.1138 38.4504 66.5452 39.0592 66.9023 39.7321C67.8248 41.4623 67.7504 42.8722 66.694 44.0097C65.5632 45.2273 63.7777 45.3555 62.5428 44.1379C61.7691 43.3849 61.1293 42.4396 60.5341 41.4784C58.6445 38.4183 56.8144 35.2942 54.9396 32.2022C54.5527 31.5774 54.1361 30.9686 53.4368 30.4399C53.4368 31.8657 53.4368 33.2756 53.4368 34.7015C53.4368 36.8963 53.4666 39.0912 53.4071 41.2701C53.3475 43.513 52.1126 44.8748 50.2973 44.8909C48.4523 44.8909 47.2918 43.5771 47.2025 41.2541C47.143 39.7962 47.2025 38.3382 47.2025 36.8803C47.1727 26.3224 47.1579 15.7646 47.1281 5.20669C47.1281 1.77819 47.753 0.977132 50.714 1.0252C53.1392 1.05724 55.624 0.977133 57.9898 1.48981C63.5248 2.70741 67.2446 7.48168 67.8397 13.6498C68.4944 20.3466 65.8608 26.0661 60.8019 28.9339C60.668 29.014 60.5639 29.1101 60.177 29.4145L60.1919 29.4305ZM53.4071 8.45897C53.4071 12.9449 53.4071 17.3667 53.4368 21.7885C53.4368 22.1089 53.7493 22.6376 54.0022 22.7337C56.8144 23.679 60.2961 21.5161 61.3673 18.2318C63.2272 12.5123 59.2992 7.51372 53.4071 8.45897Z" fill="#085D36"/>
<path d="M13.0849 28.6452C14.4835 23.1019 15.897 17.5586 17.2957 12.0314C17.9652 9.3879 18.5753 6.7284 19.3043 4.11697C19.9739 1.71381 20.7625 1.07296 22.9497 1.05694C28.9013 1.0249 34.838 1.0249 40.7896 1.05694C43.0513 1.05694 43.9886 1.92208 44.2416 4.00482C44.5392 6.34389 43.4381 8.04213 41.3997 8.07417C36.4301 8.1703 31.4605 8.21836 26.4909 8.13826C25.1667 8.12224 24.6161 8.66695 24.259 10.0608C21.6999 20.0739 19.0663 30.0551 16.4624 40.0522C16.2839 40.7571 16.1202 41.4621 15.9119 42.151C15.3763 43.8652 14.305 44.7624 12.8468 44.7464C11.3143 44.7304 10.3918 43.7691 9.9603 42.151C8.88901 38.0656 7.907 33.9642 6.82083 29.8788C4.75264 22.0926 2.62494 14.3384 0.526999 6.56819C0.422846 6.1997 0.318692 5.8152 0.229418 5.44672C-0.291348 3.25183 0.0657493 1.97015 1.38998 1.26522C2.92252 0.464168 4.93119 1.05694 5.76442 2.73916C6.28518 3.79655 6.64228 4.99812 6.93986 6.16766C8.78486 13.3131 10.6001 20.4905 12.4302 27.6359C12.5195 27.9883 12.6534 28.3248 12.7576 28.6612C12.8617 28.6612 12.9659 28.6452 13.07 28.6292L13.0849 28.6452Z" fill="#085D36"/>
<path d="M106.436 19.3051C108.936 19.3051 111.272 19.2731 113.593 19.3051C115.527 19.3532 116.554 20.4266 116.777 22.4613C117.045 24.9445 115.914 26.4505 113.742 26.4665C111.688 26.4986 109.65 26.4345 107.597 26.5146C107.21 26.5306 106.51 27.0433 106.495 27.3477C106.421 30.648 106.451 33.9484 106.451 37.3769C107.254 37.425 107.879 37.489 108.489 37.5051C111.614 37.5051 114.738 37.489 117.848 37.5371C119.827 37.5691 121.032 38.9309 121.062 41.0297C121.092 43.1124 119.872 44.5704 117.923 44.5864C112.804 44.6344 107.686 44.6184 102.567 44.6344C101.154 44.6344 100.395 43.7693 100.217 42.2313C100.127 41.4623 100.127 40.6612 100.127 39.8762C100.127 28.357 100.097 16.8539 100.097 5.33478C100.097 1.95434 100.871 1.02511 103.817 1.00909C108.504 0.993065 113.176 0.993065 117.863 1.00909C119.872 1.00909 120.928 2.06648 121.122 4.03707C121.374 6.48829 120.229 8.10642 118.086 8.13846C114.768 8.20255 111.45 8.21857 108.132 8.12244C106.823 8.0904 106.332 8.49093 106.391 10.077C106.495 13.0409 106.421 16.0208 106.421 19.3051H106.436Z" fill="#085D36"/>
<path d="M126.18 22.8295C126.18 16.8216 126.18 10.8137 126.18 4.80582C126.18 1.85794 126.82 1.02484 129.335 1.00882C132.013 0.992802 134.706 0.912703 137.369 1.26517C143.485 2.08224 148.067 7.96196 148.172 14.7869C148.276 21.8202 143.678 28.1165 137.608 29.2219C136.551 29.4142 135.48 29.4783 134.409 29.5423C132.355 29.6705 132.325 29.0297 132.325 32.0737C132.325 35.1657 132.311 38.2578 132.325 41.3338C132.325 42.6796 131.864 43.721 130.838 44.4099C128.695 45.8518 126.433 44.538 126.314 41.7023C126.21 39.0749 126.24 36.4314 126.24 33.7879C126.24 30.1351 126.24 26.4823 126.24 22.8295H126.195H126.18ZM132.415 22.5091C134.409 22.2527 136.224 22.2367 137.935 21.7241C140.405 20.9871 142.101 17.9591 142.086 14.8991C142.071 11.9672 140.42 9.41988 137.771 8.68291C136.328 8.28239 134.78 8.29841 133.293 8.28239C133.01 8.28239 132.489 9.00333 132.474 9.41988C132.385 11.4385 132.43 13.4572 132.43 15.4758C132.43 17.7028 132.43 19.9297 132.43 22.5091H132.415Z" fill="#085D36"/>
<path d="M31.7581 26.2741C31.7581 29.9429 31.773 33.1952 31.7581 36.4475C31.7581 37.6491 32.4276 37.601 33.1418 37.601C36.0581 37.601 38.9893 37.601 41.9056 37.633C44.0184 37.6491 45.0302 38.7705 45.0748 41.0455C45.1046 43.2564 44.0184 44.6342 42.0246 44.6503C37.4865 44.6983 32.9633 44.6823 28.4252 44.6343C26.5504 44.6182 25.7023 43.641 25.6874 41.5582C25.6279 35.4382 25.5833 29.3181 25.613 23.2141C25.613 20.0259 26.4612 19.1768 29.2584 19.1608C31.9813 19.1608 34.719 19.1447 37.4419 19.1928C39.4059 19.2248 40.5665 20.5706 40.5814 22.7335C40.5814 24.8322 39.4059 26.2261 37.4419 26.2901C35.6118 26.3542 33.7668 26.2901 31.773 26.2901L31.7581 26.2741Z" fill="#085D36"/>
</svg>
